<svg width="275" height="261" viewBox="0 0 275 261" fill="none" xmlns="http://www.w3.org/2000/svg">
<path fill-rule="evenodd" clip-rule="evenodd" d="M45.169 50.7302C57.8484 41.8144 67.8916 37.972 87.7353 33.4532C103.441 29.8768 118.833 30.02 133.314 33.7269C130.167 42.2304 129.107 51.4777 130.852 60.3682C134.806 80.5254 143.571 97.7943 156.659 107.298C165.179 113.484 176.196 115.084 185.141 111.636C194.695 107.953 200.349 99.2228 199.768 87.3682C199.454 80.9519 195.906 74.4615 189.755 67.6644C186.608 64.1871 183.213 61.0439 178.423 56.9748C178.639 57.1579 174.819 53.9324 173.969 53.1941C162.473 43.2097 149.648 36.2271 135.994 32.3767C143.201 15.1077 159.366 1.52017 177.594 2.13749C217.342 3.48362 255.073 27.4474 272.594 62.6464L274.384 61.7552C256.535 25.8948 218.139 1.50948 177.662 0.138636C158.436 -0.51247 141.501 13.7468 134.048 31.8504C119.193 28.0065 103.397 27.8357 87.2913 31.5032C67.2161 36.0746 56.9464 40.0037 44.0186 49.0942C11.3392 72.0734 -2.3501 101.259 1.0508 134.827C3.98071 163.746 19.6044 195.138 44.7231 225.982C49.3171 231.623 54.4662 237.139 61.1558 243.744C63.592 246.15 65.5762 248.069 69.9914 252.309C71.0664 253.342 71.5155 253.773 72.0978 254.333C72.948 255.151 73.7712 255.619 75.6245 256.486C77.4534 257.342 78.3396 257.862 78.8847 258.552C78.6235 258.574 78.2697 258.588 77.7539 258.602C76.615 258.633 76.1603 258.664 75.664 258.793L76.1677 260.729C76.4526 260.655 76.8521 260.627 77.8075 260.602C78.9463 260.571 79.4011 260.539 79.8974 260.41C80.9561 260.135 81.5718 259.285 81.0256 258.211C80.2316 256.648 79.1774 255.941 76.4722 254.675C74.82 253.902 74.1211 253.504 73.4842 252.892C72.9015 252.331 72.4521 251.9 71.3767 250.867C66.9682 246.633 64.9885 244.718 62.561 242.321C55.9186 235.762 50.8155 230.296 46.2739 224.719C21.3809 194.152 5.9253 163.098 3.04062 134.625C-0.286614 101.785 13.0747 73.298 45.169 50.7302ZM157.834 105.68C145.224 96.5227 136.681 79.6906 132.814 59.9832C131.13 51.4008 132.181 42.4604 135.255 34.2464C148.702 38.006 161.332 44.8676 172.658 54.7042C173.52 55.4531 177.355 58.6912 177.128 58.4989C181.856 62.5161 185.197 65.6081 188.272 69.0064C194.142 75.4929 197.484 81.6058 197.771 87.466C198.309 98.4606 193.168 106.398 184.422 109.77C176.12 112.97 165.813 111.473 157.834 105.68Z" fill="black"/>
</svg>
