<svg width="240" height="143" viewBox="0 0 240 143" fill="none" xmlns="http://www.w3.org/2000/svg">
<path fill-rule="evenodd" clip-rule="evenodd" d="M102.664 65.5227C108.263 57.1175 106.547 48.2399 99.2675 39.9407C96.5158 36.8034 92.9884 33.8294 89.2238 31.2973C90.4087 30.3466 91.6746 29.395 93.0187 28.4435C102.462 21.7587 115.855 15.361 123.169 13.2373C136.014 9.50785 149.774 6.60825 165.521 4.15173C173.561 2.89763 181.286 2.48768 188.628 3.00883C198.686 3.72271 209.056 5.41499 219.78 8.01444C223.387 8.88879 226.187 9.94205 232.43 12.584C235.589 13.9208 237.001 14.5013 238.788 15.1739L239.493 13.3019C237.739 12.6421 236.344 12.0684 233.21 10.7421C226.866 8.05788 223.999 6.97919 220.251 6.07073C209.423 3.4461 198.944 1.73599 188.77 1.01385C181.269 0.481464 173.395 0.899346 165.213 2.17563C149.387 4.64439 135.547 7.56106 122.612 11.3166C115.086 13.5018 101.49 19.9961 91.8631 26.8111C90.295 27.9212 88.8252 29.0356 87.4588 30.1532C84.0296 28.012 80.4768 26.2605 77.1884 25.0996C56.1615 17.6765 27.0437 25.948 13.4821 43.5015C-15.1424 80.5518 5.93438 134.253 52.3594 141.784C56.159 142.4 60.407 142.01 65.2199 140.764C68.7959 139.838 72.4281 138.531 77.1433 136.579C76.4699 136.858 84.2762 133.562 86.0691 132.875L85.3527 131.007C83.5235 131.709 75.6729 135.023 76.3782 134.731C71.7416 136.651 68.1868 137.93 64.7186 138.828C60.1523 140.01 56.1698 140.376 52.6796 139.809C7.75336 132.522 -12.6342 80.5767 15.0648 44.7243C28.0935 27.8604 56.3023 19.8472 76.5226 26.9856C79.501 28.037 82.7187 29.6022 85.851 31.5115C76.3474 39.8142 72.6379 48.262 76.7692 56.3678C78.2955 59.3624 83.242 63.8952 88.0654 66.5204C94.2964 69.9117 99.682 70.0004 102.664 65.5227ZM89.0215 64.7637C84.5256 62.3168 79.8731 58.0534 78.5511 55.4596C74.8918 48.28 78.4308 40.4985 87.6157 32.6298C91.4246 35.1376 95.0104 38.1201 97.7639 41.2595C104.501 48.9405 106.031 56.8594 101 64.414C98.7488 67.7936 94.4587 67.723 89.0215 64.7637Z" fill="black"/>
</svg>
