<svg width="400" height="400" viewBox="0 0 400 400" fill="none" xmlns="http://www.w3.org/2000/svg">
<mask id="mask0_0_489" style="mask-type:alpha" maskUnits="userSpaceOnUse" x="0" y="0" width="400" height="400">
<circle cx="200" cy="200" r="200" fill="white"/>
</mask>
<g mask="url(#mask0_0_489)">
<path d="M100.018 -207.5L100.725 -208.207L100.019 -208.914L99.311 -208.208L100.018 -207.5ZM100.724 -206.793L101.432 -207.499L100.724 -206.793ZM98.6025 -206.087L97.8959 -206.794L97.1883 -206.088L97.8949 -205.38L98.6025 -206.087ZM99.3091 -205.379L100.017 -206.086L100.017 -206.086L99.3091 -205.379ZM623.275 319.294L623.983 318.587L623.275 319.294ZM623.982 320.002L623.274 320.708L623.981 321.416L624.689 320.709L623.982 320.002ZM625.397 318.588L626.104 319.296L626.811 318.589L626.105 317.882L625.397 318.588ZM624.69 317.881L623.983 318.587L624.69 317.881ZM83.0471 -190.53L83.7547 -191.236L83.048 -191.944L82.3405 -191.237L83.0471 -190.53ZM83.7537 -189.822L84.4613 -190.529L84.4613 -190.529L83.7537 -189.822ZM81.6319 -189.116L80.9253 -189.824L80.2177 -189.117L80.9243 -188.41L81.6319 -189.116ZM82.3386 -188.409L81.631 -187.702L81.631 -187.702L82.3386 -188.409ZM606.305 336.264L605.597 336.971L606.305 336.264ZM607.011 336.972L606.304 337.679L607.01 338.386L607.718 337.68L607.011 336.972ZM608.426 335.559L609.133 336.266L609.841 335.56L609.134 334.852L608.426 335.559ZM607.72 334.851L608.427 334.145L607.72 334.851ZM66.7832 -172.851L66.0756 -172.145L66.0756 -172.145L66.7832 -172.851ZM66.0765 -173.559L66.7841 -174.266L66.0775 -174.973L65.3699 -174.267L66.0765 -173.559ZM590.749 351.822L591.457 351.115L590.749 351.822ZM591.456 352.529L592.163 353.237L592.87 352.53L592.163 351.823L591.456 352.529ZM590.041 353.943L589.333 354.649L590.04 355.357L590.747 354.65L590.041 353.943ZM589.334 353.235L590.042 352.528L589.334 353.235ZM65.368 -171.438L64.6604 -170.732L64.6604 -170.732L65.368 -171.438ZM64.6614 -172.146L63.9547 -172.853L63.2472 -172.147L63.9538 -171.439L64.6614 -172.146ZM49.106 -156.588L49.8136 -157.295L49.1069 -158.003L48.3993 -157.296L49.106 -156.588ZM49.8126 -155.881L50.5202 -156.587L50.5202 -156.587L49.8126 -155.881ZM47.6908 -155.175L46.9842 -155.883L46.2766 -155.176L46.9832 -154.469L47.6908 -155.175ZM48.3974 -154.468L49.105 -155.174L49.105 -155.174L48.3974 -154.468ZM572.364 370.206L571.656 370.912L572.364 370.206ZM573.07 370.913L572.363 371.62L573.069 372.327L573.777 371.621L573.07 370.913ZM574.485 369.5L575.192 370.208L575.9 369.501L575.193 368.793L574.485 369.5ZM573.779 368.792L573.071 369.499L573.779 368.792ZM32.842 -138.91L33.5496 -139.617L33.5496 -139.617L32.842 -138.91ZM32.1354 -139.618L32.843 -140.325L32.1364 -141.032L31.4288 -140.325L32.1354 -139.618ZM556.808 385.763L556.101 386.47L556.808 385.763ZM557.515 386.471L558.221 387.178L558.929 386.471L558.222 385.764L557.515 386.471ZM556.1 387.884L555.392 388.59L556.099 389.298L556.806 388.591L556.1 387.884ZM555.393 387.176L554.685 387.883L555.393 387.176ZM31.4269 -137.497L32.1345 -138.204L32.1345 -138.204L31.4269 -137.497ZM30.7202 -138.205L30.0136 -138.912L29.306 -138.206L30.0127 -137.498L30.7202 -138.205ZM15.1648 -122.647L15.8724 -123.354L15.1658 -124.062L14.4582 -123.355L15.1648 -122.647ZM15.8715 -121.94L16.5791 -122.646L16.5791 -122.646L15.8715 -121.94ZM13.7497 -121.234L13.043 -121.942L12.3355 -121.235L13.0421 -120.527L13.7497 -121.234ZM14.4563 -120.526L15.1639 -121.233L15.1639 -121.233L14.4563 -120.526ZM538.422 404.147L537.715 404.853L538.422 404.147ZM539.129 404.854L538.421 405.561L539.128 406.269L539.836 405.562L539.129 404.854ZM540.544 403.441L541.251 404.149L541.958 403.442L541.252 402.734L540.544 403.441ZM539.838 402.733L539.13 403.44L539.838 402.733ZM-1.09909 -104.969L-0.391503 -105.676L-0.391505 -105.676L-1.09909 -104.969ZM-1.80572 -105.677L-1.09814 -106.383L-1.80477 -107.091L-2.51235 -106.384L-1.80572 -105.677ZM522.867 419.704L522.159 420.411L522.867 419.704ZM523.574 420.412L524.28 421.119L524.988 420.413L524.281 419.705L523.574 420.412ZM522.158 421.825L521.451 422.532L522.158 423.239L522.865 422.532L522.158 421.825ZM521.452 421.117L520.744 421.824L521.452 421.117ZM-2.51425 -103.556L-1.80667 -104.263L-1.80667 -104.263L-2.51425 -103.556ZM-3.22089 -104.263L-3.92752 -104.971L-4.6351 -104.264L-3.92847 -103.557L-3.22089 -104.263ZM-18.7763 -88.7062L-18.0687 -89.4128L-18.7753 -90.1204L-19.4829 -89.4138L-18.7763 -88.7062ZM-18.0696 -87.9986L-17.3621 -88.7052L-17.3621 -88.7052L-18.0696 -87.9986ZM-20.1914 -87.2929L-20.8981 -88.0005L-21.6057 -87.2939L-20.899 -86.5863L-20.1914 -87.2929ZM-19.4848 -86.5854L-18.7772 -87.292L-18.7772 -87.292L-19.4848 -86.5854ZM504.481 438.088L503.774 438.795L504.481 438.088ZM505.188 438.795L504.48 439.502L505.187 440.21L505.895 439.503L505.188 438.795ZM506.603 437.382L507.31 438.09L508.017 437.383L507.311 436.676L506.603 437.382ZM505.896 436.675L505.189 437.381L505.896 436.675ZM-35.0402 -71.028L-34.3326 -71.7347L-34.3326 -71.7347L-35.0402 -71.028ZM-35.7468 -71.7356L-35.0393 -72.4423L-35.7459 -73.1498L-36.4535 -72.4432L-35.7468 -71.7356ZM488.926 453.645L488.218 454.352L488.926 453.645ZM489.633 454.353L490.339 455.06L491.047 454.354L490.34 453.646L489.633 454.353ZM488.217 455.766L487.51 456.473L488.216 457.18L488.924 456.474L488.217 455.766ZM487.511 455.058L486.803 455.765L487.511 455.058ZM-36.4554 -69.6148L-35.7478 -70.3214L-35.7478 -70.3214L-36.4554 -69.6148ZM-37.162 -70.3224L-37.8686 -71.03L-38.5762 -70.3233L-37.8696 -69.6157L-37.162 -70.3224ZM-52.7174 -54.7651L-52.0098 -55.4717L-52.7165 -56.1793L-53.424 -55.4726L-52.7174 -54.7651ZM-52.0108 -54.0575L-51.3032 -54.7641L-51.3032 -54.7641L-52.0108 -54.0575ZM-54.1326 -53.3518L-54.8392 -54.0594L-55.5468 -53.3528L-54.8402 -52.6452L-54.1326 -53.3518ZM-53.4259 -52.6442L-52.7184 -53.3509L-52.7184 -53.3509L-53.4259 -52.6442ZM470.54 472.029L469.833 472.736L470.54 472.029ZM471.247 472.737L470.539 473.443L471.246 474.151L471.953 473.444L471.247 472.737ZM472.662 471.323L473.369 472.031L474.076 471.324L473.37 470.617L472.662 471.323ZM471.955 470.616L471.248 471.322L471.955 470.616ZM-68.9813 -37.0869L-68.2738 -37.7936L-68.2738 -37.7936L-68.9813 -37.0869ZM-69.688 -37.7945L-68.9804 -38.5011L-69.687 -39.2087L-70.3946 -38.5021L-69.688 -37.7945ZM454.985 487.586L454.277 488.293L454.985 487.586ZM455.691 488.294L456.398 489.001L457.106 488.295L456.399 487.587L455.691 488.294ZM454.276 489.707L453.569 490.414L454.275 491.121L454.983 490.415L454.276 489.707ZM453.57 489L452.862 489.706L453.57 489ZM-70.3965 -35.6737L-69.6889 -36.3803L-69.6889 -36.3803L-70.3965 -35.6737ZM-71.1031 -36.3812L-71.8098 -37.0888L-72.5174 -36.3822L-71.8107 -35.6746L-71.1031 -36.3812ZM-86.6585 -20.8239L-85.9509 -21.5306L-86.6576 -22.2382L-87.3652 -21.5315L-86.6585 -20.8239ZM-85.9519 -20.1164L-85.2443 -20.823L-85.2443 -20.823L-85.9519 -20.1164ZM-88.0737 -19.4107L-88.7803 -20.1183L-89.4879 -19.4116L-88.7813 -18.7041L-88.0737 -19.4107ZM-87.3671 -18.7031L-86.6595 -19.4097L-86.6595 -19.4097L-87.3671 -18.7031ZM436.599 505.97L435.891 506.677L436.599 505.97ZM437.306 506.678L436.598 507.384L437.305 508.092L438.012 507.385L437.306 506.678ZM438.721 505.264L439.427 505.972L440.135 505.265L439.428 504.558L438.721 505.264ZM438.014 504.557L437.307 505.263L438.014 504.557ZM-102.922 -3.1458L-102.215 -3.85243L-102.215 -3.85243L-102.922 -3.1458ZM-103.629 -3.85338L-102.922 -4.56001L-103.628 -5.26759L-104.336 -4.56096L-103.629 -3.85338ZM421.044 521.527L420.336 522.234L421.044 521.527ZM421.75 522.235L422.457 522.943L423.164 522.236L422.458 521.528L421.75 522.235ZM420.335 523.648L419.628 524.355L420.334 525.062L421.042 524.356L420.335 523.648ZM419.628 522.941L418.921 523.647L419.628 522.941ZM-104.338 -1.73254L-103.63 -2.43917L-103.63 -2.43917L-104.338 -1.73254ZM-105.044 -2.44012L-105.751 -3.1477L-106.458 -2.44107L-105.752 -1.73349L-105.044 -2.44012ZM-120.6 13.1172L-119.892 12.4106L-120.599 11.703L-121.306 12.4096L-120.6 13.1172ZM-119.893 13.8248L-119.185 13.1181L-119.185 13.1181L-119.893 13.8248ZM-122.015 14.5304L-122.721 13.8229L-123.429 14.5295L-122.722 15.2371L-122.015 14.5304ZM-121.308 15.238L-120.601 14.5314L-120.601 14.5314L-121.308 15.238ZM402.658 539.911L401.95 540.618L402.658 539.911ZM403.365 540.619L402.657 541.325L403.364 542.033L404.071 541.326L403.365 540.619ZM404.78 539.206L405.486 539.913L406.194 539.207L405.487 538.499L404.78 539.206ZM404.073 538.498L403.366 539.205L404.073 538.498ZM-136.864 30.7953L-136.156 30.0887L-136.156 30.0887L-136.864 30.7953ZM-137.57 30.0877L-136.863 29.3811L-137.569 28.6735L-138.277 29.3802L-137.57 30.0877ZM387.103 555.469L386.395 556.175L387.103 555.469ZM387.809 556.176L388.516 556.884L389.223 556.177L388.517 555.469L387.809 556.176ZM386.394 557.589L385.686 558.296L386.393 559.004L387.101 558.297L386.394 557.589ZM385.687 556.882L384.98 557.588L385.687 556.882ZM-138.279 32.2086L-137.571 31.502L-137.571 31.502L-138.279 32.2086ZM-138.985 31.501L-139.692 30.7934L-140.4 31.5001L-139.693 32.2076L-138.985 31.501ZM-154.541 47.0583L-153.833 46.3517L-154.54 45.6441L-155.247 46.3507L-154.541 47.0583ZM-153.834 47.7659L-153.127 47.0593L-153.127 47.0593L-153.834 47.7659ZM-155.956 48.4716L-156.663 47.764L-157.37 48.4706L-156.664 49.1782L-155.956 48.4716ZM-155.249 49.1791L-154.542 48.4725L-154.542 48.4725L-155.249 49.1791ZM368.717 573.852L368.009 574.559L368.717 573.852ZM369.423 574.56L368.716 575.267L369.422 575.974L370.13 575.268L369.423 574.56ZM370.839 573.147L371.545 573.854L372.253 573.148L371.546 572.44L370.839 573.147ZM370.132 572.439L369.424 573.146L370.132 572.439ZM-170.805 64.7365L-170.097 64.0298L-170.097 64.0298L-170.805 64.7365ZM-171.511 64.0289L-170.804 63.3222L-171.51 62.6147L-172.218 63.3213L-171.511 64.0289ZM353.161 589.41L352.454 590.116L353.161 589.41ZM353.868 590.117L354.575 590.825L355.282 590.118L354.576 589.411L353.868 590.117ZM352.453 591.531L351.745 592.237L352.452 592.945L353.16 592.238L352.453 591.531ZM351.746 590.823L351.039 591.53L351.746 590.823ZM-172.22 66.1497L-171.512 65.4431L-171.512 65.4431L-172.22 66.1497ZM-172.927 65.4421L-173.633 64.7345L-174.341 65.4412L-173.634 66.1488L-172.927 65.4421ZM-188.482 80.9994L-187.774 80.2928L-188.481 79.5852L-189.189 80.2919L-188.482 80.9994ZM-187.775 81.707L-187.068 81.0004L-187.068 81.0004L-187.775 81.707ZM-189.897 82.4127L-190.604 81.7051L-191.311 82.4117L-190.605 83.1193L-189.897 82.4127ZM-189.19 83.1203L-188.483 82.4136L-188.483 82.4136L-189.19 83.1203ZM334.776 607.793L334.068 608.5L334.776 607.793ZM335.482 608.501L334.775 609.208L335.481 609.915L336.189 609.209L335.482 608.501ZM336.897 607.088L337.604 607.795L338.312 607.089L337.605 606.381L336.897 607.088ZM336.191 606.38L335.483 607.087L336.191 606.38ZM99.3101 -206.794L100.017 -206.086L101.432 -207.499L100.725 -208.207L99.3101 -206.794ZM99.3091 -205.379L100.724 -206.793L99.311 -208.208L97.8959 -206.794L99.3091 -205.379ZM100.017 -206.086L99.3101 -206.794L97.8949 -205.38L98.6015 -204.673L100.017 -206.086ZM623.983 318.587L100.017 -206.086L98.6015 -204.673L622.568 320.001L623.983 318.587ZM624.689 319.295L623.983 318.587L622.568 320.001L623.274 320.708L624.689 319.295ZM624.69 317.881L623.275 319.294L624.689 320.709L626.104 319.296L624.69 317.881ZM623.983 318.587L624.689 319.295L626.105 317.882L625.398 317.174L623.983 318.587ZM100.017 -206.086L623.983 318.587L625.398 317.174L101.432 -207.499L100.017 -206.086ZM82.3395 -189.823L83.0461 -189.115L84.4613 -190.529L83.7547 -191.236L82.3395 -189.823ZM82.3386 -188.409L83.7537 -189.822L82.3405 -191.237L80.9253 -189.824L82.3386 -188.409ZM83.0461 -189.115L82.3395 -189.823L80.9243 -188.41L81.631 -187.702L83.0461 -189.115ZM607.012 335.558L83.0461 -189.115L81.631 -187.702L605.597 336.971L607.012 335.558ZM607.719 336.265L607.012 335.558L605.597 336.971L606.304 337.679L607.719 336.265ZM607.72 334.851L606.305 336.264L607.718 337.68L609.133 336.266L607.72 334.851ZM607.012 335.558L607.719 336.265L609.134 334.852L608.427 334.145L607.012 335.558ZM83.0461 -189.115L607.012 335.558L608.427 334.145L84.4613 -190.529L83.0461 -189.115ZM67.4907 -173.558L66.7841 -174.266L65.369 -172.852L66.0756 -172.145L67.4907 -173.558ZM591.457 351.115L67.4907 -173.558L66.0756 -172.145L590.042 352.528L591.457 351.115ZM592.163 351.823L591.457 351.115L590.042 352.528L590.748 353.236L592.163 351.823ZM590.747 354.65L592.163 353.237L590.749 351.822L589.334 353.235L590.747 354.65ZM588.627 353.942L589.333 354.649L590.748 353.236L590.042 352.528L588.627 353.942ZM64.6604 -170.732L588.627 353.942L590.042 352.528L66.0756 -172.145L64.6604 -170.732ZM63.9538 -171.439L64.6604 -170.732L66.0756 -172.145L65.369 -172.852L63.9538 -171.439ZM65.3699 -174.267L63.9547 -172.853L65.368 -171.438L66.7832 -172.851L65.3699 -174.267ZM48.3984 -155.882L49.105 -155.174L50.5202 -156.587L49.8136 -157.295L48.3984 -155.882ZM48.3974 -154.468L49.8126 -155.881L48.3993 -157.296L46.9842 -155.883L48.3974 -154.468ZM49.105 -155.174L48.3984 -155.882L46.9832 -154.469L47.6899 -153.761L49.105 -155.174ZM573.071 369.499L49.105 -155.174L47.6899 -153.761L571.656 370.912L573.071 369.499ZM573.778 370.207L573.071 369.499L571.656 370.912L572.363 371.62L573.778 370.207ZM573.779 368.792L572.364 370.206L573.777 371.621L575.192 370.208L573.779 368.792ZM573.071 369.499L573.778 370.207L575.193 368.793L574.486 368.086L573.071 369.499ZM49.105 -155.174L573.071 369.499L574.486 368.086L50.5202 -156.587L49.105 -155.174ZM33.5496 -139.617L32.843 -140.325L31.4278 -138.911L32.1345 -138.204L33.5496 -139.617ZM557.516 385.056L33.5496 -139.617L32.1345 -138.204L556.101 386.47L557.516 385.056ZM558.222 385.764L557.516 385.056L556.101 386.47L556.807 387.177L558.222 385.764ZM556.806 388.591L558.221 387.178L556.808 385.763L555.393 387.176L556.806 388.591ZM554.685 387.883L555.392 388.59L556.807 387.177L556.101 386.47L554.685 387.883ZM30.7193 -136.79L554.685 387.883L556.101 386.47L32.1345 -138.204L30.7193 -136.79ZM30.0127 -137.498L30.7193 -136.79L32.1345 -138.204L31.4278 -138.911L30.0127 -137.498ZM31.4288 -140.325L30.0136 -138.912L31.4269 -137.497L32.842 -138.91L31.4288 -140.325ZM14.4573 -121.941L15.1639 -121.233L16.5791 -122.646L15.8724 -123.354L14.4573 -121.941ZM14.4563 -120.526L15.8715 -121.94L14.4582 -123.355L13.043 -121.942L14.4563 -120.526ZM15.1639 -121.233L14.4573 -121.941L13.0421 -120.527L13.7487 -119.82L15.1639 -121.233ZM539.13 403.44L15.1639 -121.233L13.7487 -119.82L537.715 404.853L539.13 403.44ZM539.837 404.148L539.13 403.44L537.715 404.853L538.421 405.561L539.837 404.148ZM539.838 402.733L538.422 404.147L539.836 405.562L541.251 404.149L539.838 402.733ZM539.13 403.44L539.837 404.148L541.252 402.734L540.545 402.027L539.13 403.44ZM15.1639 -121.233L539.13 403.44L540.545 402.027L16.5791 -122.646L15.1639 -121.233ZM-0.391505 -105.676L-1.09814 -106.383L-2.5133 -104.97L-1.80667 -104.263L-0.391505 -105.676ZM523.575 418.997L-0.391503 -105.676L-1.80667 -104.263L522.159 420.411L523.575 418.997ZM524.281 419.705L523.575 418.997L522.159 420.411L522.866 421.118L524.281 419.705ZM522.865 422.532L524.28 421.119L522.867 419.704L521.452 421.117L522.865 422.532ZM520.744 421.824L521.451 422.532L522.866 421.118L522.159 420.411L520.744 421.824ZM-3.22184 -102.849L520.744 421.824L522.159 420.411L-1.80667 -104.263L-3.22184 -102.849ZM-3.92847 -103.557L-3.22184 -102.849L-1.80667 -104.263L-2.5133 -104.97L-3.92847 -103.557ZM-2.51235 -106.384L-3.92752 -104.971L-2.51425 -103.556L-1.09909 -104.969L-2.51235 -106.384ZM-19.4839 -87.9996L-18.7772 -87.292L-17.3621 -88.7052L-18.0687 -89.4128L-19.4839 -87.9996ZM-19.4848 -86.5854L-18.0696 -87.9986L-19.4829 -89.4138L-20.8981 -88.0005L-19.4848 -86.5854ZM-18.7772 -87.292L-19.4839 -87.9996L-20.899 -86.5863L-20.1924 -85.8787L-18.7772 -87.292ZM505.189 437.381L-18.7772 -87.292L-20.1924 -85.8787L503.774 438.795L505.189 437.381ZM505.896 438.089L505.189 437.381L503.774 438.795L504.48 439.502L505.896 438.089ZM505.896 436.675L504.481 438.088L505.895 439.503L507.31 438.09L505.896 436.675ZM505.189 437.381L505.896 438.089L507.311 436.676L506.604 435.968L505.189 437.381ZM-18.7772 -87.292L505.189 437.381L506.604 435.968L-17.3621 -88.7052L-18.7772 -87.292ZM-34.3326 -71.7347L-35.0393 -72.4423L-36.4544 -71.029L-35.7478 -70.3214L-34.3326 -71.7347ZM489.633 452.939L-34.3326 -71.7347L-35.7478 -70.3214L488.218 454.352L489.633 452.939ZM490.34 453.646L489.633 452.939L488.218 454.352L488.925 455.059L490.34 453.646ZM488.924 456.474L490.339 455.06L488.926 453.645L487.511 455.058L488.924 456.474ZM486.803 455.765L487.51 456.473L488.925 455.059L488.218 454.352L486.803 455.765ZM-37.163 -68.9082L486.803 455.765L488.218 454.352L-35.7478 -70.3214L-37.163 -68.9082ZM-37.8696 -69.6157L-37.163 -68.9082L-35.7478 -70.3214L-36.4544 -71.029L-37.8696 -69.6157ZM-36.4535 -72.4432L-37.8686 -71.03L-36.4554 -69.6148L-35.0402 -71.028L-36.4535 -72.4432ZM-53.425 -54.0584L-52.7184 -53.3509L-51.3032 -54.7641L-52.0098 -55.4717L-53.425 -54.0584ZM-53.4259 -52.6442L-52.0108 -54.0575L-53.424 -55.4726L-54.8392 -54.0594L-53.4259 -52.6442ZM-52.7184 -53.3509L-53.425 -54.0584L-54.8402 -52.6452L-54.1335 -51.9376L-52.7184 -53.3509ZM471.248 471.322L-52.7184 -53.3509L-54.1335 -51.9376L469.833 472.736L471.248 471.322ZM471.954 472.03L471.248 471.322L469.833 472.736L470.539 473.443L471.954 472.03ZM471.955 470.616L470.54 472.029L471.953 473.444L473.369 472.031L471.955 470.616ZM471.248 471.322L471.954 472.03L473.37 470.617L472.663 469.909L471.248 471.322ZM-52.7184 -53.3509L471.248 471.322L472.663 469.909L-51.3032 -54.7641L-52.7184 -53.3509ZM-68.2738 -37.7936L-68.9804 -38.5011L-70.3955 -37.0879L-69.6889 -36.3803L-68.2738 -37.7936ZM455.692 486.88L-68.2738 -37.7936L-69.6889 -36.3803L454.277 488.293L455.692 486.88ZM456.399 487.587L455.692 486.88L454.277 488.293L454.984 489.001L456.399 487.587ZM454.983 490.415L456.398 489.001L454.985 487.586L453.57 489L454.983 490.415ZM452.862 489.706L453.569 490.414L454.984 489.001L454.277 488.293L452.862 489.706ZM-71.1041 -34.967L452.862 489.706L454.277 488.293L-69.6889 -36.3803L-71.1041 -34.967ZM-71.8107 -35.6746L-71.1041 -34.967L-69.6889 -36.3803L-70.3956 -37.0879L-71.8107 -35.6746ZM-70.3946 -38.5021L-71.8098 -37.0888L-70.3965 -35.6737L-68.9813 -37.0869L-70.3946 -38.5021ZM-87.3661 -20.1173L-86.6595 -19.4097L-85.2443 -20.823L-85.9509 -21.5306L-87.3661 -20.1173ZM-87.3671 -18.7031L-85.9519 -20.1164L-87.3652 -21.5315L-88.7803 -20.1183L-87.3671 -18.7031ZM-86.6595 -19.4097L-87.3661 -20.1173L-88.7813 -18.7041L-88.0746 -17.9965L-86.6595 -19.4097ZM437.307 505.263L-86.6595 -19.4097L-88.0746 -17.9965L435.891 506.677L437.307 505.263ZM438.013 505.971L437.307 505.263L435.891 506.677L436.598 507.384L438.013 505.971ZM438.014 504.557L436.599 505.97L438.012 507.385L439.427 505.972L438.014 504.557ZM437.307 505.263L438.013 505.971L439.428 504.558L438.722 503.85L437.307 505.263ZM-86.6595 -19.4097L437.307 505.263L438.722 503.85L-85.2443 -20.823L-86.6595 -19.4097ZM-102.215 -3.85243L-102.922 -4.56001L-104.337 -3.14675L-103.63 -2.43917L-102.215 -3.85243ZM421.751 520.821L-102.215 -3.85243L-103.63 -2.43917L420.336 522.234L421.751 520.821ZM422.458 521.528L421.751 520.821L420.336 522.234L421.043 522.942L422.458 521.528ZM421.042 524.356L422.457 522.943L421.044 521.527L419.628 522.941L421.042 524.356ZM418.921 523.647L419.628 524.355L421.043 522.942L420.336 522.234L418.921 523.647ZM-105.045 -1.02591L418.921 523.647L420.336 522.234L-103.63 -2.43917L-105.045 -1.02591ZM-105.752 -1.73349L-105.045 -1.02591L-103.63 -2.43917L-104.337 -3.14675L-105.752 -1.73349ZM-104.336 -4.56096L-105.751 -3.1477L-104.338 -1.73254L-102.922 -3.1458L-104.336 -4.56096ZM-121.307 13.8238L-120.601 14.5314L-119.185 13.1181L-119.892 12.4106L-121.307 13.8238ZM-121.308 15.238L-119.893 13.8248L-121.306 12.4096L-122.721 13.8229L-121.308 15.238ZM-120.601 14.5314L-121.307 13.8238L-122.722 15.2371L-122.016 15.9447L-120.601 14.5314ZM403.366 539.205L-120.601 14.5314L-122.016 15.9447L401.95 540.618L403.366 539.205ZM404.072 539.912L403.366 539.205L401.95 540.618L402.657 541.325L404.072 539.912ZM404.073 538.498L402.658 539.911L404.071 541.326L405.486 539.913L404.073 538.498ZM403.366 539.205L404.072 539.912L405.487 538.499L404.781 537.791L403.366 539.205ZM-120.601 14.5314L403.366 539.205L404.781 537.791L-119.185 13.1181L-120.601 14.5314ZM-136.156 30.0887L-136.863 29.3811L-138.278 30.7944L-137.571 31.502L-136.156 30.0887ZM387.81 554.762L-136.156 30.0887L-137.571 31.502L386.395 556.175L387.81 554.762ZM388.517 555.469L387.81 554.762L386.395 556.175L387.102 556.883L388.517 555.469ZM387.101 558.297L388.516 556.884L387.103 555.469L385.687 556.882L387.101 558.297ZM384.98 557.588L385.686 558.296L387.102 556.883L386.395 556.175L384.98 557.588ZM-138.986 32.9152L384.98 557.588L386.395 556.175L-137.571 31.502L-138.986 32.9152ZM-139.693 32.2076L-138.986 32.9152L-137.571 31.502L-138.278 30.7944L-139.693 32.2076ZM-138.277 29.3802L-139.692 30.7934L-138.279 32.2086L-136.864 30.7953L-138.277 29.3802ZM-155.248 47.7649L-154.542 48.4725L-153.127 47.0593L-153.833 46.3517L-155.248 47.7649ZM-155.249 49.1791L-153.834 47.7659L-155.247 46.3507L-156.663 47.764L-155.249 49.1791ZM-154.542 48.4725L-155.248 47.7649L-156.664 49.1782L-155.957 49.8858L-154.542 48.4725ZM369.424 573.146L-154.542 48.4725L-155.957 49.8858L368.009 574.559L369.424 573.146ZM370.131 573.853L369.424 573.146L368.009 574.559L368.716 575.267L370.131 573.853ZM370.132 572.439L368.717 573.852L370.13 575.268L371.545 573.854L370.132 572.439ZM369.424 573.146L370.131 573.853L371.546 572.44L370.84 571.732L369.424 573.146ZM-154.542 48.4725L369.424 573.146L370.84 571.732L-153.127 47.0593L-154.542 48.4725ZM-170.097 64.0298L-170.804 63.3222L-172.219 64.7355L-171.512 65.4431L-170.097 64.0298ZM353.869 588.703L-170.097 64.0298L-171.512 65.4431L352.454 590.116L353.869 588.703ZM354.576 589.411L353.869 588.703L352.454 590.116L353.16 590.824L354.576 589.411ZM353.16 592.238L354.575 590.825L353.161 589.41L351.746 590.823L353.16 592.238ZM351.039 591.53L351.745 592.237L353.16 590.824L352.454 590.116L351.039 591.53ZM-172.927 66.8563L351.039 591.53L352.454 590.116L-171.512 65.4431L-172.927 66.8563ZM-173.634 66.1488L-172.927 66.8563L-171.512 65.4431L-172.219 64.7355L-173.634 66.1488ZM-172.218 63.3213L-173.633 64.7345L-172.22 66.1497L-170.805 64.7365L-172.218 63.3213ZM-189.189 81.7061L-188.483 82.4136L-187.068 81.0004L-187.774 80.2928L-189.189 81.7061ZM-189.19 83.1203L-187.775 81.707L-189.189 80.2919L-190.604 81.7051L-189.19 83.1203ZM-188.483 82.4136L-189.189 81.7061L-190.605 83.1193L-189.898 83.8269L-188.483 82.4136ZM335.483 607.087L-188.483 82.4136L-189.898 83.8269L334.068 608.5L335.483 607.087ZM336.19 607.794L335.483 607.087L334.068 608.5L334.775 609.208L336.19 607.794ZM336.191 606.38L334.776 607.793L336.189 609.209L337.604 607.795L336.191 606.38ZM335.483 607.087L336.19 607.794L337.605 606.381L336.898 605.674L335.483 607.087ZM-188.483 82.4136L335.483 607.087L336.898 605.674L-187.068 81.0004L-188.483 82.4136Z" fill="black"/>
</g>
</svg>
