<svg width="192" height="332" viewBox="0 0 192 332" fill="none" xmlns="http://www.w3.org/2000/svg">
<path d="M93.9864 324.332C99.1103 321.648 107.666 316.569 120.252 308.661C120.603 308.441 120.778 308.03 121.048 306.83C121.061 306.773 121.061 306.773 121.074 306.715C121.372 305.396 121.613 304.741 122.204 304.097C124.507 301.591 126.492 299.734 131.035 295.693L131.053 295.676C135.807 291.447 137.864 289.511 140.204 286.902C144.309 282.327 149.248 275.62 154.875 267.124C156.876 264.103 158.948 260.879 161.087 257.467C164.748 251.627 168.48 245.442 172.412 238.747C173.898 236.218 175.346 233.728 176.958 230.94C177.674 229.702 179.959 225.74 180.388 224.999C194.028 201.424 191.223 175.061 175.262 147.366C171.795 141.351 168.417 136.339 164.751 131.945C164.654 131.83 164.32 131.426 164.273 131.37C164.082 131.141 163.931 130.961 163.783 130.789C162.038 128.75 160.753 127.81 159.396 127.812C151.946 127.826 150.348 128.497 149.165 130.959C147.769 133.864 147.072 134.876 144.667 136.615C126.189 149.978 114.074 158.21 101.176 165.814C85.0948 175.295 69.7142 182.451 53.6146 187.639C33.5528 194.104 16.1154 189.253 7.30164 172.137C-0.784451 156.435 -0.830379 136.356 5.57579 112.091C8.99397 99.1437 14.034 85.6317 21.0081 69.7534C22.8126 65.645 24.6722 61.5385 27.0305 56.4225C27.2683 55.9066 31.4349 46.9051 32.536 44.4976C36.5512 35.7192 38.751 30.4199 39.9425 26.3811C41.2961 21.7929 42.0256 18.0187 43.4019 9.44018C44.0951 5.11939 44.4187 3.2004 44.8807 0.810181L46.8444 1.18976C46.3877 3.55215 46.0665 5.45721 45.3767 9.75701C43.9869 18.4197 43.2465 22.2497 41.8608 26.947C40.6335 31.1071 38.4094 36.4649 34.3548 45.3295C33.2514 47.7419 29.0829 56.7475 28.8468 57.2597C26.4931 62.3657 24.6381 66.462 22.8392 70.5577C15.9034 86.349 10.8968 99.7712 7.50953 112.601C1.21768 136.433 1.26253 156.042 9.07973 171.222C17.3923 187.364 33.7906 191.926 53.0012 185.736C68.951 180.596 84.1994 173.501 100.16 164.091C112.992 156.526 125.064 148.323 143.495 134.994C145.564 133.498 146.099 132.722 147.362 130.093C148.945 126.799 151.256 125.827 159.392 125.812C161.528 125.809 163.198 127.029 165.303 129.488C165.457 129.669 165.614 129.855 165.81 130.09C165.858 130.148 166.192 130.551 166.287 130.664C170.034 135.155 173.475 140.26 176.995 146.368C193.281 174.627 196.164 201.725 182.119 226.001C181.691 226.74 179.407 230.702 178.69 231.941C177.076 234.733 175.625 237.226 174.137 239.76C170.195 246.471 166.454 252.672 162.782 258.529C160.634 261.955 158.553 265.193 156.542 268.228C150.866 276.798 145.876 283.575 141.693 288.238C139.286 290.921 137.192 292.892 132.383 297.171L132.364 297.187C127.871 301.184 125.919 303.01 123.677 305.45C123.403 305.748 123.247 306.175 123.025 307.156C123.012 307.213 123.012 307.213 122.999 307.27C122.61 308.998 122.293 309.741 121.316 310.355C108.689 318.288 100.095 323.39 94.9143 326.104C90.6982 328.312 88.6377 329.117 87.9006 328.231C86.7713 329.136 85.0132 330.546 84.1826 331.211L82.9332 329.649C84.116 328.703 87.1923 326.234 87.6359 325.881C88.1123 325.502 88.4125 325.266 88.6146 325.115C88.7322 325.027 88.8226 324.962 88.8987 324.914C88.9693 324.869 88.9693 324.869 89.0798 324.814C89.2211 324.722 89.2211 324.722 89.8993 324.789C90.4042 325.142 90.4042 325.142 90.5241 325.628C90.5168 325.895 90.5158 325.93 90.4844 326.024C91.3519 325.662 92.5133 325.104 93.9864 324.332Z" fill="black"/>
</svg>
