<svg width="64" height="62" viewBox="0 0 64 62" fill="none" xmlns="http://www.w3.org/2000/svg">
<path fill-rule="evenodd" clip-rule="evenodd" d="M50.3151 2.2425C48.7255 0.739607 46.6912 0.0179443 44.6409 0.0179443C42.3329 0.0179443 40.0021 0.932051 38.2643 2.68008L37.5185 3.42923L36.7728 2.67779C35.0349 0.932051 32.7041 0.0179443 30.3962 0.0179443C28.3459 0.0179443 26.3116 0.739607 24.722 2.2425C21.2258 5.5484 21.1642 11.0789 24.535 14.4649L37.5185 27.5076L50.5021 14.4649C53.8729 11.0789 53.8113 5.5484 50.3151 2.2425Z" fill="#2FB0AB"/>
<path fill-rule="evenodd" clip-rule="evenodd" d="M63.0592 34.1492C61.0637 32.7906 58.7124 33.1755 56.6302 34.3829C54.548 35.5902 42.5929 45.8584 42.5929 45.8584L30.8249 45.8607C30.2776 45.8607 29.6846 45.2422 29.6846 44.6946C29.6846 44.0508 30.2434 43.5491 30.8249 43.5491H38.0248C40.5449 43.5491 43.3661 41.8996 43.3661 38.9671C43.3661 35.8514 40.5449 34.3851 38.0248 34.3851C33.6529 34.3851 32.8022 34.4035 32.8022 34.4035C31.0507 34.4035 29.2741 34.2981 27.9057 33.5627C26.0812 32.6234 23.9785 32.0919 21.7343 32.0919C17.9668 32.0919 14.5937 33.6016 12.2812 35.982L0 48.1288L13.6837 61.8748L18.245 57.2928H41.3409C43.6397 57.2928 45.8588 56.4451 47.5761 54.9124L63.2143 37.2901C64.1699 36.4379 64.1152 34.8708 63.0592 34.1492Z" fill="#E29F72"/>
</svg>
