<svg width="400" height="401" viewBox="0 0 400 401" fill="none" xmlns="http://www.w3.org/2000/svg">
<mask id="mask0_0_8" style="mask-type:alpha" maskUnits="userSpaceOnUse" x="0" y="0" width="400" height="401">
<circle cx="200" cy="200.886" r="200" fill="white"/>
</mask>
<g mask="url(#mask0_0_8)">
<path d="M100.018 -206.614L100.725 -207.321L100.019 -208.029L99.311 -207.322L100.018 -206.614ZM100.724 -205.907L101.432 -206.613L100.724 -205.907ZM98.6025 -205.201L97.8959 -205.909L97.1883 -205.202L97.8949 -204.495L98.6025 -205.201ZM99.3091 -204.494L100.017 -205.2L100.017 -205.2L99.3091 -204.494ZM623.275 320.18L623.983 319.473L623.275 320.18ZM623.982 320.887L623.274 321.594L623.981 322.301L624.689 321.595L623.982 320.887ZM625.397 319.474L626.104 320.182L626.811 319.475L626.105 318.767L625.397 319.474ZM624.69 318.766L623.983 319.473L624.69 318.766ZM83.0471 -189.644L83.7547 -190.35L83.048 -191.058L82.3405 -190.351L83.0471 -189.644ZM83.7537 -188.936L84.4613 -189.643L84.4613 -189.643L83.7537 -188.936ZM81.6319 -188.231L80.9253 -188.938L80.2177 -188.232L80.9243 -187.524L81.6319 -188.231ZM82.3386 -187.523L81.631 -186.816L81.631 -186.816L82.3386 -187.523ZM606.305 337.15L605.597 337.857L606.305 337.15ZM607.011 337.858L606.304 338.564L607.01 339.272L607.718 338.565L607.011 337.858ZM608.426 336.445L609.133 337.152L609.841 336.446L609.134 335.738L608.426 336.445ZM607.72 335.737L608.427 335.03L607.72 335.737ZM66.7832 -171.966L66.0756 -171.259L66.0756 -171.259L66.7832 -171.966ZM66.0765 -172.673L66.7841 -173.38L66.0775 -174.087L65.3699 -173.381L66.0765 -172.673ZM590.749 352.708L591.457 352.001L590.749 352.708ZM591.456 353.415L592.163 354.123L592.87 353.416L592.163 352.708L591.456 353.415ZM590.041 354.828L589.333 355.535L590.04 356.243L590.747 355.536L590.041 354.828ZM589.334 354.121L590.042 353.414L589.334 354.121ZM65.368 -170.552L64.6604 -169.846L64.6604 -169.846L65.368 -170.552ZM64.6614 -171.26L63.9547 -171.968L63.2472 -171.261L63.9538 -170.553L64.6614 -171.26ZM49.106 -155.703L49.8136 -156.409L49.1069 -157.117L48.3993 -156.41L49.106 -155.703ZM49.8126 -154.995L50.5202 -155.702L50.5202 -155.702L49.8126 -154.995ZM47.6908 -154.289L46.9842 -154.997L46.2766 -154.29L46.9832 -153.583L47.6908 -154.289ZM48.3974 -153.582L49.105 -154.288L49.105 -154.288L48.3974 -153.582ZM572.364 371.091L571.656 371.798L572.364 371.091ZM573.07 371.799L572.363 372.506L573.069 373.213L573.777 372.507L573.07 371.799ZM574.485 370.386L575.192 371.093L575.9 370.387L575.193 369.679L574.485 370.386ZM573.779 369.678L573.071 370.385L573.779 369.678ZM32.842 -138.025L33.5496 -138.731L33.5496 -138.731L32.842 -138.025ZM32.1354 -138.732L32.843 -139.439L32.1364 -140.146L31.4288 -139.44L32.1354 -138.732ZM556.808 386.649L556.101 387.355L556.808 386.649ZM557.515 387.356L558.221 388.064L558.929 387.357L558.222 386.65L557.515 387.356ZM556.1 388.77L555.392 389.476L556.099 390.184L556.806 389.477L556.1 388.77ZM555.393 388.062L554.685 388.769L555.393 388.062ZM31.4269 -136.611L32.1345 -137.318L32.1345 -137.318L31.4269 -136.611ZM30.7202 -137.319L30.0136 -138.026L29.306 -137.32L30.0127 -136.612L30.7202 -137.319ZM15.1648 -121.762L15.8724 -122.468L15.1658 -123.176L14.4582 -122.469L15.1648 -121.762ZM15.8715 -121.054L16.5791 -121.761L16.5791 -121.761L15.8715 -121.054ZM13.7497 -120.348L13.043 -121.056L12.3355 -120.349L13.0421 -119.642L13.7497 -120.348ZM14.4563 -119.641L15.1639 -120.347L15.1639 -120.347L14.4563 -119.641ZM538.422 405.032L537.715 405.739L538.422 405.032ZM539.129 405.74L538.421 406.447L539.128 407.154L539.836 406.448L539.129 405.74ZM540.544 404.327L541.251 405.034L541.958 404.328L541.252 403.62L540.544 404.327ZM539.838 403.619L539.13 404.326L539.838 403.619ZM-1.09909 -104.083L-0.391503 -104.79L-0.391505 -104.79L-1.09909 -104.083ZM-1.80572 -104.791L-1.09814 -105.498L-1.80477 -106.205L-2.51235 -105.499L-1.80572 -104.791ZM522.867 420.59L522.159 421.296L522.867 420.59ZM523.574 421.297L524.28 422.005L524.988 421.298L524.281 420.591L523.574 421.297ZM522.158 422.711L521.451 423.417L522.158 424.125L522.865 423.418L522.158 422.711ZM521.452 422.003L520.744 422.71L521.452 422.003ZM-2.51425 -102.67L-1.80667 -103.377L-1.80667 -103.377L-2.51425 -102.67ZM-3.22089 -103.378L-3.92752 -104.085L-4.6351 -103.379L-3.92847 -102.671L-3.22089 -103.378ZM-18.7763 -87.8205L-18.0687 -88.5271L-18.7753 -89.2347L-19.4829 -88.528L-18.7763 -87.8205ZM-18.0696 -87.1129L-17.3621 -87.8195L-17.3621 -87.8195L-18.0696 -87.1129ZM-20.1914 -86.4072L-20.8981 -87.1148L-21.6057 -86.4081L-20.899 -85.7006L-20.1914 -86.4072ZM-19.4848 -85.6996L-18.7772 -86.4062L-18.7772 -86.4062L-19.4848 -85.6996ZM504.481 438.974L503.774 439.68L504.481 438.974ZM505.188 439.681L504.48 440.388L505.187 441.095L505.895 440.389L505.188 439.681ZM506.603 438.268L507.31 438.976L508.017 438.269L507.311 437.561L506.603 438.268ZM505.896 437.56L505.189 438.267L505.896 437.56ZM-35.0402 -70.1423L-34.3326 -70.8489L-34.3326 -70.8489L-35.0402 -70.1423ZM-35.7468 -70.8499L-35.0393 -71.5565L-35.7459 -72.2641L-36.4535 -71.5575L-35.7468 -70.8499ZM488.926 454.531L488.218 455.238L488.926 454.531ZM489.633 455.238L490.339 455.946L491.047 455.239L490.34 454.532L489.633 455.238ZM488.217 456.652L487.51 457.358L488.216 458.066L488.924 457.359L488.217 456.652ZM487.511 455.944L486.803 456.651L487.511 455.944ZM-36.4554 -68.729L-35.7478 -69.4357L-35.7478 -69.4357L-36.4554 -68.729ZM-37.162 -69.4366L-37.8686 -70.1442L-38.5762 -69.4376L-37.8696 -68.73L-37.162 -69.4366ZM-52.7174 -53.8793L-52.0098 -54.586L-52.7165 -55.2935L-53.424 -54.5869L-52.7174 -53.8793ZM-52.0108 -53.1717L-51.3032 -53.8784L-51.3032 -53.8784L-52.0108 -53.1717ZM-54.1326 -52.4661L-54.8392 -53.1736L-55.5468 -52.467L-54.8402 -51.7594L-54.1326 -52.4661ZM-53.4259 -51.7585L-52.7184 -52.4651L-52.7184 -52.4651L-53.4259 -51.7585ZM470.54 472.915L469.833 473.621L470.54 472.915ZM471.247 473.622L470.539 474.329L471.246 475.037L471.953 474.33L471.247 473.622ZM472.662 472.209L473.369 472.917L474.076 472.21L473.37 471.502L472.662 472.209ZM471.955 471.501L471.248 472.208L471.955 471.501ZM-68.9813 -36.2012L-68.2738 -36.9078L-68.2738 -36.9078L-68.9813 -36.2012ZM-69.688 -36.9088L-68.9804 -37.6154L-69.687 -38.323L-70.3946 -37.6163L-69.688 -36.9088ZM454.985 488.472L454.277 489.179L454.985 488.472ZM455.691 489.18L456.398 489.887L457.106 489.181L456.399 488.473L455.691 489.18ZM454.276 490.593L453.569 491.3L454.275 492.007L454.983 491.3L454.276 490.593ZM453.57 489.885L452.862 490.592L453.57 489.885ZM-70.3965 -34.7879L-69.6889 -35.4946L-69.6889 -35.4946L-70.3965 -34.7879ZM-71.1031 -35.4955L-71.8098 -36.2031L-72.5174 -35.4965L-71.8107 -34.7889L-71.1031 -35.4955ZM-86.6585 -19.9382L-85.9509 -20.6448L-86.6576 -21.3524L-87.3652 -20.6458L-86.6585 -19.9382ZM-85.9519 -19.2306L-85.2443 -19.9372L-85.2443 -19.9373L-85.9519 -19.2306ZM-88.0737 -18.5249L-88.7803 -19.2325L-89.4879 -18.5259L-88.7813 -17.8183L-88.0737 -18.5249ZM-87.3671 -17.8174L-86.6595 -18.524L-86.6595 -18.524L-87.3671 -17.8174ZM436.599 506.856L435.891 507.562L436.599 506.856ZM437.306 507.563L436.598 508.27L437.305 508.978L438.012 508.271L437.306 507.563ZM438.721 506.15L439.427 506.858L440.135 506.151L439.428 505.444L438.721 506.15ZM438.014 505.443L437.307 506.149L438.014 505.443ZM-102.922 -2.26006L-102.215 -2.96669L-102.215 -2.96669L-102.922 -2.26006ZM-103.629 -2.96764L-102.922 -3.67427L-103.628 -4.38185L-104.336 -3.67522L-103.629 -2.96764ZM421.044 522.413L420.336 523.12L421.044 522.413ZM421.75 523.121L422.457 523.828L423.164 523.122L422.458 522.414L421.75 523.121ZM420.335 524.534L419.628 525.241L420.334 525.948L421.042 525.242L420.335 524.534ZM419.628 523.826L418.921 524.533L419.628 523.826ZM-104.338 -0.846797L-103.63 -1.55343L-103.63 -1.55343L-104.338 -0.846797ZM-105.044 -1.55438L-105.751 -2.26196L-106.458 -1.55533L-105.752 -0.847746L-105.044 -1.55438ZM-120.6 14.0029L-119.892 13.2963L-120.599 12.5887L-121.306 13.2953L-120.6 14.0029ZM-119.893 14.7105L-119.185 14.0039L-119.185 14.0039L-119.893 14.7105ZM-122.015 15.4162L-122.721 14.7086L-123.429 15.4152L-122.722 16.1228L-122.015 15.4162ZM-121.308 16.1238L-120.601 15.4171L-120.601 15.4171L-121.308 16.1238ZM402.658 540.797L401.95 541.504L402.658 540.797ZM403.365 541.505L402.657 542.211L403.364 542.919L404.071 542.212L403.365 541.505ZM404.78 540.091L405.486 540.799L406.194 540.092L405.487 539.385L404.78 540.091ZM404.073 539.384L403.366 540.09L404.073 539.384ZM-136.864 31.6811L-136.156 30.9744L-136.156 30.9744L-136.864 31.6811ZM-137.57 30.9735L-136.863 30.2669L-137.569 29.5593L-138.277 30.2659L-137.57 30.9735ZM387.103 556.354L386.395 557.061L387.103 556.354ZM387.809 557.062L388.516 557.769L389.223 557.063L388.517 556.355L387.809 557.062ZM386.394 558.475L385.686 559.182L386.393 559.889L387.101 559.183L386.394 558.475ZM385.687 557.768L384.98 558.474L385.687 557.768ZM-138.279 33.0943L-137.571 32.3877L-137.571 32.3877L-138.279 33.0943ZM-138.985 32.3867L-139.692 31.6792L-140.4 32.3858L-139.693 33.0934L-138.985 32.3867ZM-154.541 47.944L-153.833 47.2374L-154.54 46.5298L-155.247 47.2365L-154.541 47.944ZM-153.834 48.6516L-153.127 47.945L-153.127 47.945L-153.834 48.6516ZM-155.956 49.3573L-156.663 48.6497L-157.37 49.3564L-156.664 50.0639L-155.956 49.3573ZM-155.249 50.0649L-154.542 49.3583L-154.542 49.3583L-155.249 50.0649ZM368.717 574.738L368.009 575.445L368.717 574.738ZM369.423 575.446L368.716 576.152L369.422 576.86L370.13 576.153L369.423 575.446ZM370.839 574.032L371.545 574.74L372.253 574.033L371.546 573.326L370.839 574.032ZM370.132 573.325L369.424 574.031L370.132 573.325ZM-170.805 65.6222L-170.097 64.9156L-170.097 64.9156L-170.805 65.6222ZM-171.511 64.9146L-170.804 64.208L-171.51 63.5004L-172.218 64.207L-171.511 64.9146ZM353.161 590.295L352.454 591.002L353.161 590.295ZM353.868 591.003L354.575 591.711L355.282 591.004L354.576 590.296L353.868 591.003ZM352.453 592.416L351.745 593.123L352.452 593.83L353.16 593.124L352.453 592.416ZM351.746 591.709L351.039 592.415L351.746 591.709ZM-172.22 67.0355L-171.512 66.3288L-171.512 66.3288L-172.22 67.0355ZM-172.927 66.3279L-173.633 65.6203L-174.341 66.3269L-173.634 67.0345L-172.927 66.3279ZM-188.482 81.8852L-187.774 81.1785L-188.481 80.471L-189.189 81.1776L-188.482 81.8852ZM-187.775 82.5928L-187.068 81.8861L-187.068 81.8861L-187.775 82.5928ZM-189.897 83.2984L-190.604 82.5909L-191.311 83.2975L-190.605 84.0051L-189.897 83.2984ZM-189.19 84.006L-188.483 83.2994L-188.483 83.2994L-189.19 84.006ZM334.776 608.679L334.068 609.386L334.776 608.679ZM335.482 609.387L334.775 610.093L335.481 610.801L336.189 610.094L335.482 609.387ZM336.897 607.974L337.604 608.681L338.312 607.975L337.605 607.267L336.897 607.974ZM336.191 607.266L335.483 607.973L336.191 607.266ZM99.3101 -205.908L100.017 -205.2L101.432 -206.613L100.725 -207.321L99.3101 -205.908ZM99.3091 -204.494L100.724 -205.907L99.311 -207.322L97.8959 -205.909L99.3091 -204.494ZM100.017 -205.2L99.3101 -205.908L97.8949 -204.495L98.6015 -203.787L100.017 -205.2ZM623.983 319.473L100.017 -205.2L98.6015 -203.787L622.568 320.886L623.983 319.473ZM624.689 320.181L623.983 319.473L622.568 320.886L623.274 321.594L624.689 320.181ZM624.69 318.766L623.275 320.18L624.689 321.595L626.104 320.182L624.69 318.766ZM623.983 319.473L624.689 320.181L626.105 318.767L625.398 318.06L623.983 319.473ZM100.017 -205.2L623.983 319.473L625.398 318.06L101.432 -206.613L100.017 -205.2ZM82.3395 -188.937L83.0461 -188.23L84.4613 -189.643L83.7547 -190.35L82.3395 -188.937ZM82.3386 -187.523L83.7537 -188.936L82.3405 -190.351L80.9253 -188.938L82.3386 -187.523ZM83.0461 -188.23L82.3395 -188.937L80.9243 -187.524L81.631 -186.816L83.0461 -188.23ZM607.012 336.444L83.0461 -188.23L81.631 -186.816L605.597 337.857L607.012 336.444ZM607.719 337.151L607.012 336.444L605.597 337.857L606.304 338.564L607.719 337.151ZM607.72 335.737L606.305 337.15L607.718 338.565L609.133 337.152L607.72 335.737ZM607.012 336.444L607.719 337.151L609.134 335.738L608.427 335.03L607.012 336.444ZM83.0461 -188.23L607.012 336.444L608.427 335.03L84.4613 -189.643L83.0461 -188.23ZM67.4907 -172.672L66.7841 -173.38L65.369 -171.967L66.0756 -171.259L67.4907 -172.672ZM591.457 352.001L67.4907 -172.672L66.0756 -171.259L590.042 353.414L591.457 352.001ZM592.163 352.708L591.457 352.001L590.042 353.414L590.748 354.122L592.163 352.708ZM590.747 355.536L592.163 354.123L590.749 352.708L589.334 354.121L590.747 355.536ZM588.627 354.827L589.333 355.535L590.748 354.122L590.042 353.414L588.627 354.827ZM64.6604 -169.846L588.627 354.827L590.042 353.414L66.0756 -171.259L64.6604 -169.846ZM63.9538 -170.553L64.6604 -169.846L66.0756 -171.259L65.369 -171.967L63.9538 -170.553ZM65.3699 -173.381L63.9547 -171.968L65.368 -170.552L66.7832 -171.966L65.3699 -173.381ZM48.3984 -154.996L49.105 -154.288L50.5202 -155.702L49.8136 -156.409L48.3984 -154.996ZM48.3974 -153.582L49.8126 -154.995L48.3993 -156.41L46.9842 -154.997L48.3974 -153.582ZM49.105 -154.288L48.3984 -154.996L46.9832 -153.583L47.6899 -152.875L49.105 -154.288ZM573.071 370.385L49.105 -154.288L47.6899 -152.875L571.656 371.798L573.071 370.385ZM573.778 371.092L573.071 370.385L571.656 371.798L572.363 372.506L573.778 371.092ZM573.779 369.678L572.364 371.091L573.777 372.507L575.192 371.093L573.779 369.678ZM573.071 370.385L573.778 371.092L575.193 369.679L574.486 368.971L573.071 370.385ZM49.105 -154.288L573.071 370.385L574.486 368.971L50.5202 -155.702L49.105 -154.288ZM33.5496 -138.731L32.843 -139.439L31.4278 -138.026L32.1345 -137.318L33.5496 -138.731ZM557.516 385.942L33.5496 -138.731L32.1345 -137.318L556.101 387.355L557.516 385.942ZM558.222 386.65L557.516 385.942L556.101 387.355L556.807 388.063L558.222 386.65ZM556.806 389.477L558.221 388.064L556.808 386.649L555.393 388.062L556.806 389.477ZM554.685 388.769L555.392 389.476L556.807 388.063L556.101 387.355L554.685 388.769ZM30.7193 -135.905L554.685 388.769L556.101 387.355L32.1345 -137.318L30.7193 -135.905ZM30.0127 -136.612L30.7193 -135.905L32.1345 -137.318L31.4278 -138.026L30.0127 -136.612ZM31.4288 -139.44L30.0136 -138.026L31.4269 -136.611L32.842 -138.025L31.4288 -139.44ZM14.4573 -121.055L15.1639 -120.347L16.5791 -121.761L15.8724 -122.468L14.4573 -121.055ZM14.4563 -119.641L15.8715 -121.054L14.4582 -122.469L13.043 -121.056L14.4563 -119.641ZM15.1639 -120.347L14.4573 -121.055L13.0421 -119.642L13.7487 -118.934L15.1639 -120.347ZM539.13 404.326L15.1639 -120.347L13.7487 -118.934L537.715 405.739L539.13 404.326ZM539.837 405.033L539.13 404.326L537.715 405.739L538.421 406.447L539.837 405.033ZM539.838 403.619L538.422 405.032L539.836 406.448L541.251 405.034L539.838 403.619ZM539.13 404.326L539.837 405.033L541.252 403.62L540.545 402.913L539.13 404.326ZM15.1639 -120.347L539.13 404.326L540.545 402.913L16.5791 -121.761L15.1639 -120.347ZM-0.391505 -104.79L-1.09814 -105.498L-2.5133 -104.084L-1.80667 -103.377L-0.391505 -104.79ZM523.575 419.883L-0.391503 -104.79L-1.80667 -103.377L522.159 421.296L523.575 419.883ZM524.281 420.591L523.575 419.883L522.159 421.296L522.866 422.004L524.281 420.591ZM522.865 423.418L524.28 422.005L522.867 420.59L521.452 422.003L522.865 423.418ZM520.744 422.71L521.451 423.417L522.866 422.004L522.159 421.296L520.744 422.71ZM-3.22184 -101.964L520.744 422.71L522.159 421.296L-1.80667 -103.377L-3.22184 -101.964ZM-3.92847 -102.671L-3.22184 -101.964L-1.80667 -103.377L-2.5133 -104.084L-3.92847 -102.671ZM-2.51235 -105.499L-3.92752 -104.085L-2.51425 -102.67L-1.09909 -104.083L-2.51235 -105.499ZM-19.4839 -87.1138L-18.7772 -86.4062L-17.3621 -87.8195L-18.0687 -88.5271L-19.4839 -87.1138ZM-19.4848 -85.6996L-18.0696 -87.1129L-19.4829 -88.528L-20.8981 -87.1148L-19.4848 -85.6996ZM-18.7772 -86.4062L-19.4839 -87.1138L-20.899 -85.7006L-20.1924 -84.993L-18.7772 -86.4062ZM505.189 438.267L-18.7772 -86.4062L-20.1924 -84.993L503.774 439.68L505.189 438.267ZM505.896 438.975L505.189 438.267L503.774 439.68L504.48 440.388L505.896 438.975ZM505.896 437.56L504.481 438.974L505.895 440.389L507.31 438.976L505.896 437.56ZM505.189 438.267L505.896 438.975L507.311 437.561L506.604 436.854L505.189 438.267ZM-18.7772 -86.4062L505.189 438.267L506.604 436.854L-17.3621 -87.8195L-18.7772 -86.4062ZM-34.3326 -70.8489L-35.0393 -71.5565L-36.4544 -70.1433L-35.7478 -69.4357L-34.3326 -70.8489ZM489.633 453.824L-34.3326 -70.8489L-35.7478 -69.4357L488.218 455.238L489.633 453.824ZM490.34 454.532L489.633 453.824L488.218 455.238L488.925 455.945L490.34 454.532ZM488.924 457.359L490.339 455.946L488.926 454.531L487.511 455.944L488.924 457.359ZM486.803 456.651L487.51 457.358L488.925 455.945L488.218 455.238L486.803 456.651ZM-37.163 -68.0224L486.803 456.651L488.218 455.238L-35.7478 -69.4357L-37.163 -68.0224ZM-37.8696 -68.73L-37.163 -68.0224L-35.7478 -69.4357L-36.4544 -70.1433L-37.8696 -68.73ZM-36.4535 -71.5575L-37.8686 -70.1442L-36.4554 -68.729L-35.0402 -70.1423L-36.4535 -71.5575ZM-53.425 -53.1727L-52.7184 -52.4651L-51.3032 -53.8784L-52.0098 -54.586L-53.425 -53.1727ZM-53.4259 -51.7585L-52.0108 -53.1717L-53.424 -54.5869L-54.8392 -53.1736L-53.4259 -51.7585ZM-52.7184 -52.4651L-53.425 -53.1727L-54.8402 -51.7594L-54.1335 -51.0519L-52.7184 -52.4651ZM471.248 472.208L-52.7184 -52.4651L-54.1335 -51.0519L469.833 473.621L471.248 472.208ZM471.954 472.916L471.248 472.208L469.833 473.621L470.539 474.329L471.954 472.916ZM471.955 471.501L470.54 472.915L471.953 474.33L473.369 472.917L471.955 471.501ZM471.248 472.208L471.954 472.916L473.37 471.502L472.663 470.795L471.248 472.208ZM-52.7184 -52.4651L471.248 472.208L472.663 470.795L-51.3032 -53.8784L-52.7184 -52.4651ZM-68.2738 -36.9078L-68.9804 -37.6154L-70.3955 -36.2021L-69.6889 -35.4945L-68.2738 -36.9078ZM455.692 487.765L-68.2738 -36.9078L-69.6889 -35.4946L454.277 489.179L455.692 487.765ZM456.399 488.473L455.692 487.765L454.277 489.179L454.984 489.886L456.399 488.473ZM454.983 491.3L456.398 489.887L454.985 488.472L453.57 489.885L454.983 491.3ZM452.862 490.592L453.569 491.3L454.984 489.886L454.277 489.179L452.862 490.592ZM-71.1041 -34.0813L452.862 490.592L454.277 489.179L-69.6889 -35.4946L-71.1041 -34.0813ZM-71.8107 -34.7889L-71.1041 -34.0813L-69.6889 -35.4946L-70.3956 -36.2021L-71.8107 -34.7889ZM-70.3946 -37.6163L-71.8098 -36.2031L-70.3965 -34.7879L-68.9813 -36.2012L-70.3946 -37.6163ZM-87.3661 -19.2316L-86.6595 -18.524L-85.2443 -19.9373L-85.9509 -20.6448L-87.3661 -19.2316ZM-87.3671 -17.8174L-85.9519 -19.2306L-87.3652 -20.6458L-88.7803 -19.2325L-87.3671 -17.8174ZM-86.6595 -18.524L-87.3661 -19.2316L-88.7813 -17.8183L-88.0746 -17.1107L-86.6595 -18.524ZM437.307 506.149L-86.6595 -18.524L-88.0746 -17.1107L435.891 507.562L437.307 506.149ZM438.013 506.857L437.307 506.149L435.891 507.562L436.598 508.27L438.013 506.857ZM438.014 505.443L436.599 506.856L438.012 508.271L439.427 506.858L438.014 505.443ZM437.307 506.149L438.013 506.857L439.428 505.444L438.722 504.736L437.307 506.149ZM-86.6595 -18.524L437.307 506.149L438.722 504.736L-85.2443 -19.9372L-86.6595 -18.524ZM-102.215 -2.96669L-102.922 -3.67427L-104.337 -2.26101L-103.63 -1.55342L-102.215 -2.96669ZM421.751 521.707L-102.215 -2.96669L-103.63 -1.55343L420.336 523.12L421.751 521.707ZM422.458 522.414L421.751 521.707L420.336 523.12L421.043 523.827L422.458 522.414ZM421.042 525.242L422.457 523.828L421.044 522.413L419.628 523.826L421.042 525.242ZM418.921 524.533L419.628 525.241L421.043 523.827L420.336 523.12L418.921 524.533ZM-105.045 -0.140167L418.921 524.533L420.336 523.12L-103.63 -1.55343L-105.045 -0.140167ZM-105.752 -0.847746L-105.045 -0.140165L-103.63 -1.55343L-104.337 -2.26101L-105.752 -0.847746ZM-104.336 -3.67522L-105.751 -2.26196L-104.338 -0.846797L-102.922 -2.26006L-104.336 -3.67522ZM-121.307 14.7096L-120.601 15.4171L-119.185 14.0039L-119.892 13.2963L-121.307 14.7096ZM-121.308 16.1238L-119.893 14.7105L-121.306 13.2953L-122.721 14.7086L-121.308 16.1238ZM-120.601 15.4171L-121.307 14.7096L-122.722 16.1228L-122.016 16.8304L-120.601 15.4171ZM403.366 540.09L-120.601 15.4171L-122.016 16.8304L401.95 541.504L403.366 540.09ZM404.072 540.798L403.366 540.09L401.95 541.504L402.657 542.211L404.072 540.798ZM404.073 539.384L402.658 540.797L404.071 542.212L405.486 540.799L404.073 539.384ZM403.366 540.09L404.072 540.798L405.487 539.385L404.781 538.677L403.366 540.09ZM-120.601 15.4171L403.366 540.09L404.781 538.677L-119.185 14.0039L-120.601 15.4171ZM-136.156 30.9744L-136.863 30.2669L-138.278 31.6801L-137.571 32.3877L-136.156 30.9744ZM387.81 555.648L-136.156 30.9744L-137.571 32.3877L386.395 557.061L387.81 555.648ZM388.517 556.355L387.81 555.648L386.395 557.061L387.102 557.769L388.517 556.355ZM387.101 559.183L388.516 557.769L387.103 556.354L385.687 557.768L387.101 559.183ZM384.98 558.474L385.686 559.182L387.102 557.769L386.395 557.061L384.98 558.474ZM-138.986 33.801L384.98 558.474L386.395 557.061L-137.571 32.3877L-138.986 33.801ZM-139.693 33.0934L-138.986 33.801L-137.571 32.3877L-138.278 31.6801L-139.693 33.0934ZM-138.277 30.2659L-139.692 31.6792L-138.279 33.0943L-136.864 31.6811L-138.277 30.2659ZM-155.248 48.6507L-154.542 49.3583L-153.127 47.945L-153.833 47.2374L-155.248 48.6507ZM-155.249 50.0649L-153.834 48.6516L-155.247 47.2365L-156.663 48.6497L-155.249 50.0649ZM-154.542 49.3583L-155.248 48.6507L-156.664 50.0639L-155.957 50.7715L-154.542 49.3583ZM369.424 574.031L-154.542 49.3583L-155.957 50.7715L368.009 575.445L369.424 574.031ZM370.131 574.739L369.424 574.031L368.009 575.445L368.716 576.152L370.131 574.739ZM370.132 573.325L368.717 574.738L370.13 576.153L371.545 574.74L370.132 573.325ZM369.424 574.031L370.131 574.739L371.546 573.326L370.84 572.618L369.424 574.031ZM-154.542 49.3583L369.424 574.031L370.84 572.618L-153.127 47.945L-154.542 49.3583ZM-170.097 64.9156L-170.804 64.208L-172.219 65.6212L-171.512 66.3288L-170.097 64.9156ZM353.869 589.589L-170.097 64.9156L-171.512 66.3288L352.454 591.002L353.869 589.589ZM354.576 590.296L353.869 589.589L352.454 591.002L353.16 591.71L354.576 590.296ZM353.16 593.124L354.575 591.711L353.161 590.295L351.746 591.709L353.16 593.124ZM351.039 592.415L351.745 593.123L353.16 591.71L352.454 591.002L351.039 592.415ZM-172.927 67.7421L351.039 592.415L352.454 591.002L-171.512 66.3288L-172.927 67.7421ZM-173.634 67.0345L-172.927 67.7421L-171.512 66.3288L-172.219 65.6212L-173.634 67.0345ZM-172.218 64.207L-173.633 65.6203L-172.22 67.0355L-170.805 65.6222L-172.218 64.207ZM-189.189 82.5918L-188.483 83.2994L-187.068 81.8861L-187.774 81.1785L-189.189 82.5918ZM-189.19 84.006L-187.775 82.5928L-189.189 81.1776L-190.604 82.5909L-189.19 84.006ZM-188.483 83.2994L-189.189 82.5918L-190.605 84.0051L-189.898 84.7126L-188.483 83.2994ZM335.483 607.973L-188.483 83.2994L-189.898 84.7126L334.068 609.386L335.483 607.973ZM336.19 608.68L335.483 607.973L334.068 609.386L334.775 610.093L336.19 608.68ZM336.191 607.266L334.776 608.679L336.189 610.094L337.604 608.681L336.191 607.266ZM335.483 607.973L336.19 608.68L337.605 607.267L336.898 606.559L335.483 607.973ZM-188.483 83.2994L335.483 607.973L336.898 606.559L-187.068 81.8861L-188.483 83.2994Z" fill="black"/>
</g>
</svg>
