<svg width="145" height="302" viewBox="0 0 145 302" fill="none" xmlns="http://www.w3.org/2000/svg">
<path fill-rule="evenodd" clip-rule="evenodd" d="M51.0039 162.497C71.1822 167.093 94.4575 158.686 105.129 141.085C109.92 133.182 113.075 125.427 114.675 117.812C136.032 130.156 144.203 147.48 141.506 169.174C139.278 187.097 130.051 206.7 114.924 229.534C100.957 250.618 74.9083 276.306 60.1687 283.259C55.764 285.337 50.6807 287.136 44.9039 288.737C36.9856 290.932 14.0077 295.393 15.5806 295.027C12.7158 295.693 10.4968 296.425 5.56578 298.218C3.12854 299.104 2.04506 299.488 0.686707 299.937L1.3133 301.836C2.69698 301.379 3.79301 300.99 6.24906 300.097C11.1047 298.332 13.2729 297.617 16.0334 296.975C14.3915 297.357 37.4286 292.885 45.4381 290.665C51.3166 289.035 56.5038 287.2 61.0221 285.068C76.1408 277.936 102.44 252.001 116.592 230.639C131.875 207.568 141.215 187.724 143.491 169.421C146.311 146.733 137.58 128.507 115.073 115.736C117.719 100.482 114.108 85.7941 104.892 71.6095C93.4527 54.0022 74.0996 37.932 47.3016 21.7433C35.9337 14.8759 27.8239 10.4815 7.77225 0L6.84575 1.77245C26.8602 12.2345 34.947 16.6164 46.2675 23.4551C72.8294 39.5013 91.9756 55.3997 103.215 72.6992C112.017 86.2461 115.552 100.201 113.217 114.712C112.863 114.522 112.506 114.334 112.146 114.146C104.207 110.019 85.4912 105.376 69.5744 104.123C48.7159 102.48 34.0432 106.212 29.7062 116.648C19.8929 140.259 29.648 157.632 51.0039 162.497ZM69.4173 106.117C85.086 107.351 103.547 111.93 111.224 115.921C111.771 116.206 112.312 116.493 112.844 116.784C111.335 124.378 108.221 132.126 103.419 140.048C93.2182 156.873 70.8256 164.96 51.4481 160.546C31.2694 155.95 22.2289 139.85 31.553 117.415C35.4335 108.078 49.3568 104.537 69.4173 106.117Z" fill="black"/>
</svg>
