<svg width="64" height="59" viewBox="0 0 64 59" fill="none" xmlns="http://www.w3.org/2000/svg">
<path fill-rule="evenodd" clip-rule="evenodd" d="M16.982 6.84338C16.3365 7.87812 15.7571 8.94659 15.2444 10.0426C13.2463 9.36706 11.327 8.45953 9.53963 7.33542C13.3234 3.77999 17.865 1.29265 22.794 0.0251465C20.5403 1.9887 18.5795 4.28236 16.982 6.84338ZM38.1884 0.0419503C41.459 2.89772 44.1055 6.44034 45.9055 10.4368L46.2651 10.0788C47.6832 8.66653 49.3592 7.66453 51.1435 7.07079C47.4496 3.69348 42.9961 1.29016 38.1884 0.0419503ZM23.8206 11.4627H26.5501C26.9137 10.9774 27.3149 10.5147 27.7528 10.0788C28.0289 9.80384 28.3153 9.54518 28.6099 9.30122V0.352758C25.1974 2.49319 22.3099 5.37921 20.1676 8.81366C19.7222 9.52763 19.3134 10.2602 18.94 11.008C20.5465 11.3081 22.1814 11.4627 23.8206 11.4627ZM16.1506 27.6035V22.8346C16.1506 19.9953 16.6068 17.1925 17.4891 14.5245C19.566 14.9672 21.69 15.197 23.8206 15.197H24.6395C24.2691 16.3858 24.0764 17.6364 24.0764 18.9166C24.0764 22.1847 25.3283 25.261 27.605 27.6037H16.1506V27.6035ZM16.1506 31.3378V36.1068C16.1506 38.9461 16.6068 41.7487 17.4891 44.417C19.566 43.9742 21.69 43.7445 23.8206 43.7445H28.6099V31.3378H16.1506ZM37.149 43.7444C39.2793 43.7444 41.4029 43.9739 43.4794 44.4165C43.563 44.1636 43.6429 43.9092 43.719 43.653L32.3599 32.3418V43.7444H37.149ZM23.8206 47.4786H28.6099V58.5885C25.1974 56.4481 22.3099 53.562 20.1676 50.1276C19.7222 49.4136 19.3135 48.6811 18.94 47.9333C20.5464 47.6332 22.1814 47.4786 23.8206 47.4786ZM32.3599 47.4786V58.5877C36.5231 55.9776 39.8602 52.2868 42.0312 47.9336C40.4243 47.6333 38.7889 47.4786 37.149 47.4786H32.3599ZM32.3599 0.354874C35.0544 2.04783 37.4205 4.2078 39.3461 6.71853C37.0335 6.21131 34.604 6.36043 32.3599 7.16464V0.354874ZM12.4008 22.8346C12.4008 19.6542 12.9015 16.5139 13.8728 13.52C11.429 12.6783 9.09138 11.5313 6.93363 10.1018C2.80213 15.0652 0.390375 21.1422 0 27.6035H12.4008V22.8346ZM12.4006 31.3377V36.1066C12.4006 39.287 12.9015 42.4274 13.8726 45.4213C11.429 46.2629 9.09125 47.41 6.93363 48.8394C2.80213 43.8761 0.390375 37.7991 0 31.3377H12.4006ZM16.9821 52.0979C16.3366 51.0631 15.7571 49.9947 15.2445 48.8987C13.2463 49.5741 11.327 50.4817 9.53975 51.6058C13.3234 55.1613 17.8651 57.6486 22.7941 58.9162C20.5403 56.9526 18.5795 54.6588 16.9821 52.0979ZM45.7261 48.8989C47.724 49.5743 49.6429 50.4818 51.43 51.6058C47.6459 55.1616 43.1036 57.6491 38.1739 58.9166C41.3594 56.1434 43.9345 52.7346 45.7261 48.8989ZM47.4487 44.2508C47.3385 44.644 47.2204 45.0338 47.095 45.4207C49.5395 46.2624 51.8779 47.4097 54.036 48.8394C58.2913 43.7276 60.7225 37.4345 60.9996 30.7569L47.4487 44.2508Z" fill="#2FB0AB"/>
<path d="M63.9415 18.9165C63.9415 21.2575 63.026 23.4583 61.3636 25.1136L45.884 40.5281L30.4042 25.1136C28.7419 23.4583 27.8264 21.2575 27.8264 18.9165C27.8264 16.5754 28.7419 14.3746 30.4042 12.7193C32.1201 11.0106 34.3739 10.1564 36.6277 10.1564C38.8815 10.1564 41.1354 11.0106 42.8512 12.7193L45.884 15.7392L48.9167 12.7193C52.3485 9.30212 57.9322 9.30224 61.3637 12.7193C63.026 14.3746 63.9415 16.5754 63.9415 18.9165Z" fill="#E29F72"/>
</svg>
