<svg width="41" height="64" viewBox="0 0 41 64" fill="none" xmlns="http://www.w3.org/2000/svg">
<path fill-rule="evenodd" clip-rule="evenodd" d="M31.6818 30.125C28.0303 30.125 24.7342 31.6525 22.3636 34.0938V25.3662C23.2905 24.565 24.2074 23.7788 25.0522 23.0613C30.9811 18.025 35.265 14.2625 35.265 8.92125C35.265 3.91875 31.6147 0 26.9519 0C24.0831 0 21.9338 1.49625 20.5012 3.40375C19.0675 1.4975 16.9181 0 14.0481 0C9.38526 0 5.73502 3.91875 5.73502 8.92125C5.73502 14.2625 10.0189 18.025 15.9477 23.0613C16.7926 23.7788 17.7095 24.565 18.6364 25.3662V34.0938C16.2658 31.6525 12.9697 30.125 9.31817 30.125H3.72726V32C3.72726 35.6688 5.23184 38.9912 7.65333 41.375H33.3467C35.7681 38.9912 37.2727 35.6688 37.2727 32V30.125H31.6818Z" fill="#2FB0AB"/>
<path fill-rule="evenodd" clip-rule="evenodd" d="M0 45.125V48.875H4.80818L7.79124 64H33.2088L36.1918 48.875H41V45.125H0Z" fill="#E29F72"/>
</svg>
