<svg width="59" height="64" viewBox="0 0 59 64" fill="none" xmlns="http://www.w3.org/2000/svg">
<path fill-rule="evenodd" clip-rule="evenodd" d="M55.1801 47.0382C53.412 44.6423 50.2128 41.1851 50.2128 41.1851C50.2128 41.1851 47.0136 44.6423 45.2455 47.0383C42.6751 50.521 41.4255 53.196 41.4255 55.2157C41.4255 60.0594 45.3675 64.0001 50.2128 64.0001C55.0581 64.0001 59 60.0594 59 55.2157C59 53.196 57.7505 50.521 55.1801 47.0382Z" fill="#2FB0AB"/>
<path fill-rule="evenodd" clip-rule="evenodd" d="M39.4829 18.7639L38.8475 18.7706C38.029 18.7791 37.2594 18.4674 36.678 17.8925C36.0967 17.3175 35.7766 16.5507 35.7766 15.7332V9.41177H30.1277V5.64706H39.5426V1.88235H30.1277V0H26.3617V1.88235H16.9468V5.64706H26.3617V9.41177H20.7128V15.2676C20.7128 17.2284 19.1171 18.8235 17.1557 18.8235H12.3925C12.4965 19.3771 12.5532 19.9469 12.5532 20.5301V30.2935C12.5532 30.8766 12.4963 31.4465 12.3925 32H39.5426C41.6191 32 43.3085 33.6888 43.3085 35.7647V37.6471H56.4894V35.7647C56.4894 26.3905 48.8603 18.7639 39.4829 18.7639Z" fill="#E29F72"/>
<path fill-rule="evenodd" clip-rule="evenodd" d="M3.31417 15.0586H0V35.7645H3.31417C6.33195 35.7645 8.78723 33.31 8.78723 30.2932V20.5298C8.78723 17.5131 6.33195 15.0586 3.31417 15.0586Z" fill="#2FB0AB"/>
</svg>
