<svg width="64" height="64" viewBox="0 0 64 64" fill="none" xmlns="http://www.w3.org/2000/svg">
<path fill-rule="evenodd" clip-rule="evenodd" d="M20.2639 46.1138C19.8514 41.8525 20.4701 38.1538 22.1051 35.1188C23.7639 32.04 26.36 29.8388 29.6138 28.7525C29.8825 28.6625 30.1538 28.5813 30.4263 28.5088C29.55 27.48 29.0625 26.1825 29.0625 24.8137V17.2062C29.0625 12.4202 25.5701 8.43538 21.0004 7.66288C20.94 6.312 20.5815 4.54063 19.351 3.01475C17.7379 1.01425 15.1485 0 11.6549 0V3.75C13.9453 3.75 15.5475 4.2885 16.4169 5.35038C17.0266 6.09513 17.2173 7.02513 17.2568 7.76225C12.9368 8.73287 9.70025 12.5982 9.70025 17.2062V24.76C9.70025 26.5438 8.88275 28.2425 7.51275 29.3037C5.184 31.11 3.26913 33.4587 1.97413 36.0962C0.612877 38.8675 -0.0496233 41.8512 0.00287672 44.9613C0.182877 55.5088 8.854 64 19.3826 64C19.4614 64 19.5414 64 19.6214 63.9987C22.2639 63.9662 24.855 63.3925 27.2388 62.3338C26.1275 61.1038 25.0988 59.6775 24.17 58.07C22.0725 54.44 20.6489 50.0812 20.2639 46.1138Z" fill="#2FB0AB"/>
<path fill-rule="evenodd" clip-rule="evenodd" d="M62.4834 36.8971C61.2863 34.6746 59.4209 33.0885 57.089 32.3099C53.2805 31.0385 48.8577 32.1285 45.503 34.8741C45.7401 32.2808 46.8579 29.1659 50.55 27.6894L49.1576 24.2075C45.0475 25.8511 42.53 29.138 41.8777 33.7128C41.844 33.9493 41.8162 34.1834 41.7939 34.4141C38.5221 32.0103 34.3886 31.1123 30.8009 32.31C28.4691 33.0886 26.6037 34.6748 25.4066 36.8973C24.131 39.2655 23.6565 42.2449 23.9964 45.7528C24.6547 52.5459 28.867 60.9601 34.7762 63.2823C35.7027 63.6464 36.8236 63.9241 38.0885 63.9241C39.8169 63.9241 41.813 63.4053 43.9449 61.8789C47.6367 64.5224 50.921 64.144 53.1134 63.2824C59.0228 60.9601 63.2349 52.546 63.8932 45.7529C64.2334 42.2449 63.7589 39.2654 62.4834 36.8971Z" fill="#E29F72"/>
</svg>
