<svg width="56" height="64" viewBox="0 0 56 64" fill="none" xmlns="http://www.w3.org/2000/svg">
<path fill-rule="evenodd" clip-rule="evenodd" d="M28.0619 0C21.8902 0 16.8868 5.16175 16.8868 11.375C16.8868 17.5882 21.89 22.625 28.0619 22.625C34.2339 22.625 39.2371 17.5882 39.2371 11.375C39.2371 5.16175 34.2337 0 28.0619 0Z" fill="#E29F72"/>
<path fill-rule="evenodd" clip-rule="evenodd" d="M36.3887 38.6876C31.5341 38.6876 29.8734 44.5195 29.8571 44.5781C29.8521 44.596 29.8332 44.604 29.8278 44.6216C29.8278 44.6214 29.8283 44.6214 29.8283 44.6211C29.588 45.4036 28.8841 45.9459 28.0673 45.9495C28.0654 45.9495 28.0637 45.9495 28.06 45.9495C27.2288 45.9495 26.4976 45.391 26.2683 44.5854C26.201 44.3436 24.544 38.6875 19.735 38.6875C16.0482 38.6875 13.2689 41.793 13.2689 45.9129C13.2689 50.8165 17.6615 55.7379 24.9406 61.9231C25.5619 62.4502 26.2009 62.9931 26.8562 63.5536C27.5505 64.1474 28.5712 64.1491 29.2658 63.5556C29.9205 62.996 30.5584 62.4542 31.1776 61.9266C36.7154 57.2237 42.8548 51.1779 42.8548 45.9126C42.8548 41.7931 40.0756 38.6876 36.3887 38.6876Z" fill="#E29F72"/>
<path fill-rule="evenodd" clip-rule="evenodd" d="M37.5609 22.8125C34.9906 25.0251 31.7125 26.375 28.062 26.375C24.4114 26.375 21.1334 25.025 18.5631 22.8125C8.13292 23.8624 0.124054 32.6874 0.124054 43.375V46C0.124054 52.075 2.47084 57.7749 6.71753 62.0499C6.71753 62.0874 6.71753 62.0874 6.75478 62.0874C7.90954 63.2499 9.51132 63.9249 11.1503 63.9624C13.8739 63.8937 16.077 61.8136 16.4398 59.1382C12.9678 55.5474 9.54397 50.9461 9.54397 45.9128C9.54397 39.5075 14.4052 34.9374 19.7178 34.9374C19.7214 34.9374 19.7242 34.938 19.7279 34.938C19.7304 34.938 19.7326 34.9374 19.7352 34.9374C23.2409 34.9374 26.17 36.8785 28.0638 39.7183C29.9753 36.8515 32.825 34.9374 36.3888 34.9374C36.3913 34.9374 36.3936 34.938 36.3962 34.938C36.3998 34.938 36.4025 34.9374 36.4062 34.9374C42.0499 34.9374 46.5801 39.8107 46.5801 45.9128C46.4045 46.3876 47.3358 51.0115 39.6793 59.0879C40.0213 61.7871 42.2332 63.8932 44.9738 63.9624C46.6129 63.9249 48.2146 63.2499 49.3694 62.0874C49.4067 62.0874 49.4067 62.0874 49.4067 62.0499C53.6531 57.7749 55.9999 52.075 55.9999 46V43.375C55.9999 32.6874 47.9909 23.8624 37.5609 22.8125Z" fill="#2FB0AB"/>
</svg>
