<svg width="225" height="183" viewBox="0 0 225 183" fill="none" xmlns="http://www.w3.org/2000/svg">
<path d="M0.529907 144.688L1.47008 142.923C29.3209 157.756 45.5126 165.398 63.3659 171.323C85.7344 178.748 107.041 181.606 129.771 179.583C176.218 175.449 209.565 143.862 217.985 97.3929C218.047 97.05 218.125 96.6184 218.266 95.8433C219.463 89.2401 220.044 85.8462 220.607 81.9405C223.571 61.3573 222.08 46.9869 213.722 34.0353C202.082 15.9974 175.809 1.45133 154.996 2.01611C141.543 2.38118 133.164 3.17363 124.678 4.83448C118.37 6.06898 89.2707 13.7085 83.6052 15.0971C58.4321 21.2671 44.4644 38.1115 49.005 61.4584C51.0274 71.8569 54.7479 79.8548 60.7636 83.7639C66.6466 87.5867 75.4761 90.6274 81.9793 90.6962C87.823 90.7581 92.9147 91.043 102.033 91.7191C122.936 93.2689 130.045 93.2551 138.063 90.6288C148.311 87.2722 154.622 79.38 157.606 64.6692L159.566 65.0668C156.446 80.4473 149.659 88.9352 138.686 92.5294C130.313 95.2719 123.091 95.286 101.885 93.7136C92.8068 93.0405 87.7477 92.7574 81.9582 92.6961C75.0457 92.6229 65.8563 89.4583 59.6739 85.4409C53.0809 81.1568 49.1589 72.7255 47.0418 61.8402C42.2741 37.3257 57.0083 19.5568 83.1291 13.1546C88.7362 11.7803 117.912 4.12057 124.294 2.87172C132.901 1.18721 141.386 0.384707 154.942 0.0168469C176.469 -0.567322 203.392 14.3385 215.403 32.9508C224.076 46.3903 225.613 61.2099 222.586 82.2256C222.019 86.1626 221.435 89.5738 220.234 96.2C220.093 96.9754 220.015 97.4068 219.953 97.7495C211.375 145.09 177.307 177.36 129.948 181.575C106.933 183.623 85.3539 180.729 62.7358 173.222C44.7459 167.25 28.4746 159.572 0.529907 144.688Z" fill="black"/>
</svg>
